<mxfile host="Electron" agent="Mozilla/5.0 (Windows NT 10.0; Win64; x64) AppleWebKit/537.36 (KHTML, like Gecko) draw.io/28.2.5 Chrome/138.0.7204.251 Electron/37.6.1 Safari/537.36" version="28.2.5">
  <diagram name="หน้า-1" id="DJnujdEyidwuMX4dNXrI">
    <mxGraphModel dx="2977" dy="1789" grid="1" gridSize="10" guides="1" tooltips="1" connect="1" arrows="1" fold="1" page="1" pageScale="1" pageWidth="827" pageHeight="1169" math="0" shadow="0">
      <root>
        <mxCell id="0" />
        <mxCell id="1" parent="0" />
        <mxCell id="jgj6PPTQt38Oaf4RnsGW-14" value="" style="edgeStyle=orthogonalEdgeStyle;rounded=0;orthogonalLoop=1;jettySize=auto;html=1;" edge="1" parent="1" source="jgj6PPTQt38Oaf4RnsGW-12" target="jgj6PPTQt38Oaf4RnsGW-13">
          <mxGeometry relative="1" as="geometry" />
        </mxCell>
        <mxCell id="jgj6PPTQt38Oaf4RnsGW-12" value="เริ่มโปรแกรม" style="ellipse;whiteSpace=wrap;html=1;" vertex="1" parent="1">
          <mxGeometry x="268" y="40" width="76" height="50" as="geometry" />
        </mxCell>
        <mxCell id="jgj6PPTQt38Oaf4RnsGW-18" value="" style="edgeStyle=orthogonalEdgeStyle;rounded=0;orthogonalLoop=1;jettySize=auto;html=1;" edge="1" parent="1" source="jgj6PPTQt38Oaf4RnsGW-13" target="jgj6PPTQt38Oaf4RnsGW-17">
          <mxGeometry relative="1" as="geometry" />
        </mxCell>
        <mxCell id="jgj6PPTQt38Oaf4RnsGW-13" value="สร้างอาเรย์ a[100], กำหนด count = 0, ch" style="whiteSpace=wrap;html=1;" vertex="1" parent="1">
          <mxGeometry x="246" y="140" width="120" height="60" as="geometry" />
        </mxCell>
        <mxCell id="jgj6PPTQt38Oaf4RnsGW-20" value="" style="edgeStyle=orthogonalEdgeStyle;rounded=0;orthogonalLoop=1;jettySize=auto;html=1;" edge="1" parent="1" source="jgj6PPTQt38Oaf4RnsGW-17" target="jgj6PPTQt38Oaf4RnsGW-19">
          <mxGeometry relative="1" as="geometry" />
        </mxCell>
        <mxCell id="jgj6PPTQt38Oaf4RnsGW-17" value="แสดงข้อความ &quot;กรอกตัวเลข:&quot;" style="shape=parallelogram;perimeter=parallelogramPerimeter;whiteSpace=wrap;html=1;fixedSize=1;" vertex="1" parent="1">
          <mxGeometry x="218" y="250" width="176" height="60" as="geometry" />
        </mxCell>
        <mxCell id="jgj6PPTQt38Oaf4RnsGW-22" value="" style="edgeStyle=orthogonalEdgeStyle;rounded=0;orthogonalLoop=1;jettySize=auto;html=1;" edge="1" parent="1" source="jgj6PPTQt38Oaf4RnsGW-19" target="jgj6PPTQt38Oaf4RnsGW-21">
          <mxGeometry relative="1" as="geometry" />
        </mxCell>
        <mxCell id="jgj6PPTQt38Oaf4RnsGW-19" value="เริ่มลูปรับค่าจนกว่าจะกด Enter" style="whiteSpace=wrap;html=1;" vertex="1" parent="1">
          <mxGeometry x="246" y="360" width="120" height="60" as="geometry" />
        </mxCell>
        <mxCell id="jgj6PPTQt38Oaf4RnsGW-24" value="" style="edgeStyle=orthogonalEdgeStyle;rounded=0;orthogonalLoop=1;jettySize=auto;html=1;" edge="1" parent="1" source="jgj6PPTQt38Oaf4RnsGW-21" target="jgj6PPTQt38Oaf4RnsGW-23">
          <mxGeometry relative="1" as="geometry" />
        </mxCell>
        <mxCell id="jgj6PPTQt38Oaf4RnsGW-21" value="รับค่าจำนวนเต็มใส่ a[count]" style="whiteSpace=wrap;html=1;" vertex="1" parent="1">
          <mxGeometry x="246" y="470" width="120" height="60" as="geometry" />
        </mxCell>
        <mxCell id="jgj6PPTQt38Oaf4RnsGW-26" value="" style="edgeStyle=orthogonalEdgeStyle;rounded=0;orthogonalLoop=1;jettySize=auto;html=1;" edge="1" parent="1" source="jgj6PPTQt38Oaf4RnsGW-23" target="jgj6PPTQt38Oaf4RnsGW-25">
          <mxGeometry relative="1" as="geometry" />
        </mxCell>
        <mxCell id="jgj6PPTQt38Oaf4RnsGW-23" value="เพิ่ม count = count + 1" style="whiteSpace=wrap;html=1;" vertex="1" parent="1">
          <mxGeometry x="246" y="580" width="120" height="60" as="geometry" />
        </mxCell>
        <mxCell id="jgj6PPTQt38Oaf4RnsGW-30" value="" style="edgeStyle=orthogonalEdgeStyle;rounded=0;orthogonalLoop=1;jettySize=auto;html=1;" edge="1" parent="1" source="jgj6PPTQt38Oaf4RnsGW-25" target="jgj6PPTQt38Oaf4RnsGW-29">
          <mxGeometry relative="1" as="geometry" />
        </mxCell>
        <mxCell id="jgj6PPTQt38Oaf4RnsGW-25" value="อ่านตัวอักษร ch = getchar()" style="whiteSpace=wrap;html=1;" vertex="1" parent="1">
          <mxGeometry x="246" y="690" width="120" height="60" as="geometry" />
        </mxCell>
        <mxCell id="jgj6PPTQt38Oaf4RnsGW-31" style="edgeStyle=orthogonalEdgeStyle;rounded=0;orthogonalLoop=1;jettySize=auto;html=1;entryX=0;entryY=0.5;entryDx=0;entryDy=0;" edge="1" parent="1">
          <mxGeometry relative="1" as="geometry">
            <mxPoint x="305.9988235294117" y="879.9525616698293" as="sourcePoint" />
            <mxPoint x="245.94" y="370" as="targetPoint" />
            <Array as="points">
              <mxPoint x="306" y="920" />
              <mxPoint x="182" y="920" />
              <mxPoint x="182" y="370" />
            </Array>
          </mxGeometry>
        </mxCell>
        <mxCell id="jgj6PPTQt38Oaf4RnsGW-34" value="" style="edgeStyle=orthogonalEdgeStyle;rounded=0;orthogonalLoop=1;jettySize=auto;html=1;entryX=0.5;entryY=0;entryDx=0;entryDy=0;" edge="1" parent="1" source="jgj6PPTQt38Oaf4RnsGW-29">
          <mxGeometry relative="1" as="geometry">
            <mxPoint x="306" y="950" as="targetPoint" />
            <Array as="points">
              <mxPoint x="402" y="850" />
              <mxPoint x="402" y="930" />
              <mxPoint x="306" y="930" />
            </Array>
          </mxGeometry>
        </mxCell>
        <mxCell id="jgj6PPTQt38Oaf4RnsGW-29" value="ch ไม่ใช่ Enter หรือ EOF ?" style="rhombus;whiteSpace=wrap;html=1;" vertex="1" parent="1">
          <mxGeometry x="244" y="800" width="124" height="100" as="geometry" />
        </mxCell>
        <mxCell id="jgj6PPTQt38Oaf4RnsGW-32" value="True" style="text;html=1;align=center;verticalAlign=middle;resizable=0;points=[];autosize=1;strokeColor=none;fillColor=none;" vertex="1" parent="1">
          <mxGeometry x="218" y="890" width="50" height="30" as="geometry" />
        </mxCell>
        <mxCell id="jgj6PPTQt38Oaf4RnsGW-35" value="False" style="text;html=1;align=center;verticalAlign=middle;resizable=0;points=[];autosize=1;strokeColor=none;fillColor=none;" vertex="1" parent="1">
          <mxGeometry x="337" y="888" width="50" height="30" as="geometry" />
        </mxCell>
        <mxCell id="jgj6PPTQt38Oaf4RnsGW-39" value="" style="edgeStyle=orthogonalEdgeStyle;rounded=0;orthogonalLoop=1;jettySize=auto;html=1;" edge="1" parent="1" source="jgj6PPTQt38Oaf4RnsGW-36" target="jgj6PPTQt38Oaf4RnsGW-38">
          <mxGeometry relative="1" as="geometry" />
        </mxCell>
        <mxCell id="jgj6PPTQt38Oaf4RnsGW-36" value="แสดง &quot;ดัชนี:&quot; และค่าตัวเลข 0 ถึง count-1" style="shape=parallelogram;perimeter=parallelogramPerimeter;whiteSpace=wrap;html=1;fixedSize=1;" vertex="1" parent="1">
          <mxGeometry x="208" y="950" width="194" height="60" as="geometry" />
        </mxCell>
        <mxCell id="jgj6PPTQt38Oaf4RnsGW-45" value="" style="edgeStyle=orthogonalEdgeStyle;rounded=0;orthogonalLoop=1;jettySize=auto;html=1;" edge="1" parent="1" source="jgj6PPTQt38Oaf4RnsGW-38" target="jgj6PPTQt38Oaf4RnsGW-44">
          <mxGeometry relative="1" as="geometry" />
        </mxCell>
        <mxCell id="jgj6PPTQt38Oaf4RnsGW-38" value="แสดง &quot;Array:&quot; และค่าตัวเลขในอาเรย์" style="shape=parallelogram;perimeter=parallelogramPerimeter;whiteSpace=wrap;html=1;fixedSize=1;" vertex="1" parent="1">
          <mxGeometry x="196.5" y="1090" width="217" height="60" as="geometry" />
        </mxCell>
        <mxCell id="jgj6PPTQt38Oaf4RnsGW-47" value="" style="edgeStyle=orthogonalEdgeStyle;rounded=0;orthogonalLoop=1;jettySize=auto;html=1;" edge="1" parent="1" source="jgj6PPTQt38Oaf4RnsGW-44" target="jgj6PPTQt38Oaf4RnsGW-46">
          <mxGeometry relative="1" as="geometry" />
        </mxCell>
        <mxCell id="jgj6PPTQt38Oaf4RnsGW-44" value="เรียกฟังก์ชัน findMin(a,count)" style="shape=process;whiteSpace=wrap;html=1;backgroundOutline=1;" vertex="1" parent="1">
          <mxGeometry x="207.5" y="1230" width="197" height="60" as="geometry" />
        </mxCell>
        <mxCell id="jgj6PPTQt38Oaf4RnsGW-49" value="" style="edgeStyle=orthogonalEdgeStyle;rounded=0;orthogonalLoop=1;jettySize=auto;html=1;" edge="1" parent="1" source="jgj6PPTQt38Oaf4RnsGW-46" target="jgj6PPTQt38Oaf4RnsGW-48">
          <mxGeometry relative="1" as="geometry" />
        </mxCell>
        <mxCell id="jgj6PPTQt38Oaf4RnsGW-46" value="เรียกฟังก์ชัน findMax(a,count)" style="shape=process;whiteSpace=wrap;html=1;backgroundOutline=1;" vertex="1" parent="1">
          <mxGeometry x="207.5" y="1370" width="197" height="60" as="geometry" />
        </mxCell>
        <mxCell id="jgj6PPTQt38Oaf4RnsGW-48" value="จบโปรแกรม" style="ellipse;whiteSpace=wrap;html=1;" vertex="1" parent="1">
          <mxGeometry x="268" y="1490" width="76" height="50" as="geometry" />
        </mxCell>
        <mxCell id="jgj6PPTQt38Oaf4RnsGW-52" value="" style="edgeStyle=orthogonalEdgeStyle;rounded=0;orthogonalLoop=1;jettySize=auto;html=1;" edge="1" parent="1" source="jgj6PPTQt38Oaf4RnsGW-50" target="jgj6PPTQt38Oaf4RnsGW-51">
          <mxGeometry relative="1" as="geometry" />
        </mxCell>
        <mxCell id="jgj6PPTQt38Oaf4RnsGW-50" value="เริ่มโปรแกรม&lt;div&gt;findMin()&lt;/div&gt;" style="ellipse;whiteSpace=wrap;html=1;" vertex="1" parent="1">
          <mxGeometry x="680" y="40" width="76" height="50" as="geometry" />
        </mxCell>
        <mxCell id="jgj6PPTQt38Oaf4RnsGW-54" value="" style="edgeStyle=orthogonalEdgeStyle;rounded=0;orthogonalLoop=1;jettySize=auto;html=1;" edge="1" parent="1" source="jgj6PPTQt38Oaf4RnsGW-51" target="jgj6PPTQt38Oaf4RnsGW-53">
          <mxGeometry relative="1" as="geometry" />
        </mxCell>
        <mxCell id="jgj6PPTQt38Oaf4RnsGW-51" value="กำหนด min = a[0]" style="whiteSpace=wrap;html=1;" vertex="1" parent="1">
          <mxGeometry x="658" y="140" width="120" height="60" as="geometry" />
        </mxCell>
        <mxCell id="jgj6PPTQt38Oaf4RnsGW-56" value="" style="edgeStyle=orthogonalEdgeStyle;rounded=0;orthogonalLoop=1;jettySize=auto;html=1;" edge="1" parent="1" source="jgj6PPTQt38Oaf4RnsGW-53" target="jgj6PPTQt38Oaf4RnsGW-55">
          <mxGeometry relative="1" as="geometry" />
        </mxCell>
        <mxCell id="jgj6PPTQt38Oaf4RnsGW-63" style="edgeStyle=orthogonalEdgeStyle;rounded=0;orthogonalLoop=1;jettySize=auto;html=1;" edge="1" parent="1" source="jgj6PPTQt38Oaf4RnsGW-53">
          <mxGeometry relative="1" as="geometry">
            <mxPoint x="718" y="640" as="targetPoint" />
            <Array as="points">
              <mxPoint x="600" y="295" />
              <mxPoint x="600" y="640" />
            </Array>
          </mxGeometry>
        </mxCell>
        <mxCell id="jgj6PPTQt38Oaf4RnsGW-53" value="i = 1 ถึง size-1 ?" style="rhombus;whiteSpace=wrap;html=1;" vertex="1" parent="1">
          <mxGeometry x="667" y="250" width="102" height="90" as="geometry" />
        </mxCell>
        <mxCell id="jgj6PPTQt38Oaf4RnsGW-58" value="" style="edgeStyle=orthogonalEdgeStyle;rounded=0;orthogonalLoop=1;jettySize=auto;html=1;" edge="1" parent="1" source="jgj6PPTQt38Oaf4RnsGW-55" target="jgj6PPTQt38Oaf4RnsGW-57">
          <mxGeometry relative="1" as="geometry" />
        </mxCell>
        <mxCell id="jgj6PPTQt38Oaf4RnsGW-66" value="" style="edgeStyle=orthogonalEdgeStyle;rounded=0;orthogonalLoop=1;jettySize=auto;html=1;" edge="1" parent="1" source="jgj6PPTQt38Oaf4RnsGW-55" target="jgj6PPTQt38Oaf4RnsGW-65">
          <mxGeometry relative="1" as="geometry" />
        </mxCell>
        <mxCell id="jgj6PPTQt38Oaf4RnsGW-55" value="a[i] &amp;lt; min ?" style="rhombus;whiteSpace=wrap;html=1;" vertex="1" parent="1">
          <mxGeometry x="667" y="400" width="102" height="90" as="geometry" />
        </mxCell>
        <mxCell id="jgj6PPTQt38Oaf4RnsGW-80" value="" style="edgeStyle=orthogonalEdgeStyle;rounded=0;orthogonalLoop=1;jettySize=auto;html=1;" edge="1" parent="1" source="jgj6PPTQt38Oaf4RnsGW-57" target="jgj6PPTQt38Oaf4RnsGW-79">
          <mxGeometry relative="1" as="geometry" />
        </mxCell>
        <mxCell id="jgj6PPTQt38Oaf4RnsGW-57" value="min = a[i]" style="whiteSpace=wrap;html=1;" vertex="1" parent="1">
          <mxGeometry x="658" y="555" width="120" height="60" as="geometry" />
        </mxCell>
        <mxCell id="jgj6PPTQt38Oaf4RnsGW-59" value="จบโปรแกรม" style="ellipse;whiteSpace=wrap;html=1;" vertex="1" parent="1">
          <mxGeometry x="680" y="780" width="76" height="50" as="geometry" />
        </mxCell>
        <mxCell id="jgj6PPTQt38Oaf4RnsGW-61" value="True" style="text;html=1;align=center;verticalAlign=middle;resizable=0;points=[];autosize=1;strokeColor=none;fillColor=none;" vertex="1" parent="1">
          <mxGeometry x="719" y="490" width="50" height="30" as="geometry" />
        </mxCell>
        <mxCell id="jgj6PPTQt38Oaf4RnsGW-62" value="True" style="text;html=1;align=center;verticalAlign=middle;resizable=0;points=[];autosize=1;strokeColor=none;fillColor=none;" vertex="1" parent="1">
          <mxGeometry x="719" y="350" width="50" height="30" as="geometry" />
        </mxCell>
        <mxCell id="jgj6PPTQt38Oaf4RnsGW-67" style="edgeStyle=orthogonalEdgeStyle;rounded=0;orthogonalLoop=1;jettySize=auto;html=1;" edge="1" parent="1" source="jgj6PPTQt38Oaf4RnsGW-65">
          <mxGeometry relative="1" as="geometry">
            <mxPoint x="720" y="230" as="targetPoint" />
            <Array as="points">
              <mxPoint x="845" y="230" />
              <mxPoint x="720" y="230" />
            </Array>
          </mxGeometry>
        </mxCell>
        <mxCell id="jgj6PPTQt38Oaf4RnsGW-65" value="i++" style="whiteSpace=wrap;html=1;" vertex="1" parent="1">
          <mxGeometry x="820" y="427.5" width="50" height="35" as="geometry" />
        </mxCell>
        <mxCell id="jgj6PPTQt38Oaf4RnsGW-70" value="" style="edgeStyle=orthogonalEdgeStyle;rounded=0;orthogonalLoop=1;jettySize=auto;html=1;" edge="1" parent="1" source="jgj6PPTQt38Oaf4RnsGW-68" target="jgj6PPTQt38Oaf4RnsGW-69">
          <mxGeometry relative="1" as="geometry" />
        </mxCell>
        <mxCell id="jgj6PPTQt38Oaf4RnsGW-68" value="เริ่มโปรแกรม&lt;div&gt; findMax()&lt;/div&gt;" style="ellipse;whiteSpace=wrap;html=1;" vertex="1" parent="1">
          <mxGeometry x="1090" y="40" width="76" height="50" as="geometry" />
        </mxCell>
        <mxCell id="jgj6PPTQt38Oaf4RnsGW-72" value="" style="edgeStyle=orthogonalEdgeStyle;rounded=0;orthogonalLoop=1;jettySize=auto;html=1;" edge="1" parent="1" source="jgj6PPTQt38Oaf4RnsGW-69" target="jgj6PPTQt38Oaf4RnsGW-71">
          <mxGeometry relative="1" as="geometry" />
        </mxCell>
        <mxCell id="jgj6PPTQt38Oaf4RnsGW-69" value="กำหนด max = a[0]" style="whiteSpace=wrap;html=1;" vertex="1" parent="1">
          <mxGeometry x="1068" y="140" width="120" height="60" as="geometry" />
        </mxCell>
        <mxCell id="jgj6PPTQt38Oaf4RnsGW-74" value="" style="edgeStyle=orthogonalEdgeStyle;rounded=0;orthogonalLoop=1;jettySize=auto;html=1;" edge="1" parent="1" source="jgj6PPTQt38Oaf4RnsGW-71" target="jgj6PPTQt38Oaf4RnsGW-73">
          <mxGeometry relative="1" as="geometry" />
        </mxCell>
        <mxCell id="jgj6PPTQt38Oaf4RnsGW-71" value="i = 1 ถึง size-1 ?" style="rhombus;whiteSpace=wrap;html=1;" vertex="1" parent="1">
          <mxGeometry x="1077" y="250" width="102" height="90" as="geometry" />
        </mxCell>
        <mxCell id="jgj6PPTQt38Oaf4RnsGW-76" value="" style="edgeStyle=orthogonalEdgeStyle;rounded=0;orthogonalLoop=1;jettySize=auto;html=1;" edge="1" parent="1" source="jgj6PPTQt38Oaf4RnsGW-73" target="jgj6PPTQt38Oaf4RnsGW-75">
          <mxGeometry relative="1" as="geometry" />
        </mxCell>
        <mxCell id="jgj6PPTQt38Oaf4RnsGW-88" style="edgeStyle=orthogonalEdgeStyle;rounded=0;orthogonalLoop=1;jettySize=auto;html=1;exitX=0;exitY=0.5;exitDx=0;exitDy=0;" edge="1" parent="1" source="jgj6PPTQt38Oaf4RnsGW-71">
          <mxGeometry relative="1" as="geometry">
            <mxPoint x="1128" y="640" as="targetPoint" />
            <Array as="points">
              <mxPoint x="1010" y="295" />
              <mxPoint x="1010" y="640" />
            </Array>
          </mxGeometry>
        </mxCell>
        <mxCell id="jgj6PPTQt38Oaf4RnsGW-93" value="" style="edgeStyle=orthogonalEdgeStyle;rounded=0;orthogonalLoop=1;jettySize=auto;html=1;" edge="1" parent="1" source="jgj6PPTQt38Oaf4RnsGW-73" target="jgj6PPTQt38Oaf4RnsGW-92">
          <mxGeometry relative="1" as="geometry" />
        </mxCell>
        <mxCell id="jgj6PPTQt38Oaf4RnsGW-73" value="a[i] &amp;gt; max ?" style="rhombus;whiteSpace=wrap;html=1;" vertex="1" parent="1">
          <mxGeometry x="1077" y="420" width="102" height="90" as="geometry" />
        </mxCell>
        <mxCell id="jgj6PPTQt38Oaf4RnsGW-83" value="" style="edgeStyle=orthogonalEdgeStyle;rounded=0;orthogonalLoop=1;jettySize=auto;html=1;" edge="1" parent="1" source="jgj6PPTQt38Oaf4RnsGW-75" target="jgj6PPTQt38Oaf4RnsGW-82">
          <mxGeometry relative="1" as="geometry" />
        </mxCell>
        <mxCell id="jgj6PPTQt38Oaf4RnsGW-75" value="max = a[i]" style="whiteSpace=wrap;html=1;" vertex="1" parent="1">
          <mxGeometry x="1068" y="555" width="120" height="60" as="geometry" />
        </mxCell>
        <mxCell id="jgj6PPTQt38Oaf4RnsGW-77" value="จบโปรแกรม" style="ellipse;whiteSpace=wrap;html=1;" vertex="1" parent="1">
          <mxGeometry x="1090" y="780" width="76" height="50" as="geometry" />
        </mxCell>
        <mxCell id="jgj6PPTQt38Oaf4RnsGW-81" value="" style="edgeStyle=orthogonalEdgeStyle;rounded=0;orthogonalLoop=1;jettySize=auto;html=1;" edge="1" parent="1" source="jgj6PPTQt38Oaf4RnsGW-79" target="jgj6PPTQt38Oaf4RnsGW-59">
          <mxGeometry relative="1" as="geometry" />
        </mxCell>
        <mxCell id="jgj6PPTQt38Oaf4RnsGW-79" value="ส่งค่ากลับ min" style="whiteSpace=wrap;html=1;" vertex="1" parent="1">
          <mxGeometry x="658" y="665" width="120" height="60" as="geometry" />
        </mxCell>
        <mxCell id="jgj6PPTQt38Oaf4RnsGW-84" value="" style="edgeStyle=orthogonalEdgeStyle;rounded=0;orthogonalLoop=1;jettySize=auto;html=1;" edge="1" parent="1" source="jgj6PPTQt38Oaf4RnsGW-82" target="jgj6PPTQt38Oaf4RnsGW-77">
          <mxGeometry relative="1" as="geometry" />
        </mxCell>
        <mxCell id="jgj6PPTQt38Oaf4RnsGW-82" value="ส่งค่ากลับ max" style="whiteSpace=wrap;html=1;" vertex="1" parent="1">
          <mxGeometry x="1068" y="665" width="120" height="60" as="geometry" />
        </mxCell>
        <mxCell id="jgj6PPTQt38Oaf4RnsGW-86" value="True" style="text;html=1;align=center;verticalAlign=middle;resizable=0;points=[];autosize=1;strokeColor=none;fillColor=none;" vertex="1" parent="1">
          <mxGeometry x="1129" y="360" width="50" height="30" as="geometry" />
        </mxCell>
        <mxCell id="jgj6PPTQt38Oaf4RnsGW-87" value="True" style="text;html=1;align=center;verticalAlign=middle;resizable=0;points=[];autosize=1;strokeColor=none;fillColor=none;" vertex="1" parent="1">
          <mxGeometry x="1129" y="510" width="50" height="30" as="geometry" />
        </mxCell>
        <mxCell id="jgj6PPTQt38Oaf4RnsGW-89" value="False" style="text;html=1;align=center;verticalAlign=middle;resizable=0;points=[];autosize=1;strokeColor=none;fillColor=none;" vertex="1" parent="1">
          <mxGeometry x="1018" y="300" width="50" height="30" as="geometry" />
        </mxCell>
        <mxCell id="jgj6PPTQt38Oaf4RnsGW-94" style="edgeStyle=orthogonalEdgeStyle;rounded=0;orthogonalLoop=1;jettySize=auto;html=1;" edge="1" parent="1" source="jgj6PPTQt38Oaf4RnsGW-92">
          <mxGeometry relative="1" as="geometry">
            <mxPoint x="1130" y="230" as="targetPoint" />
            <Array as="points">
              <mxPoint x="1280" y="230" />
            </Array>
          </mxGeometry>
        </mxCell>
        <mxCell id="jgj6PPTQt38Oaf4RnsGW-92" value="i++" style="whiteSpace=wrap;html=1;" vertex="1" parent="1">
          <mxGeometry x="1250" y="447.5" width="60" height="35" as="geometry" />
        </mxCell>
      </root>
    </mxGraphModel>
  </diagram>
</mxfile>
